<?xml version="1.0" encoding="utf-8"?>
<!-- Generator: Adobe Illustrator 16.2.1, SVG Export Plug-In . SVG Version: 6.00 Build 0)  -->
<!DOCTYPE svg PUBLIC "-//W3C//DTD SVG 1.1//EN" "http://www.w3.org/Graphics/SVG/1.1/DTD/svg11.dtd">
<svg version="1.1" id="Layer_1" xmlns="http://www.w3.org/2000/svg" xmlns:xlink="http://www.w3.org/1999/xlink" x="0px" y="0px"
	 width="50px" height="29px" viewBox="0 0 50 29" enable-background="new 0 0 50 29" xml:space="preserve">
<g opacity="0.1">
	<path fill="#3FBF6A" d="M46,5c-0.256,0-0.512-0.098-0.707-0.293L43,2.414l-2.293,2.293c-0.391,0.391-1.023,0.391-1.414,0L37,2.414
		l-2.293,2.293c-0.391,0.391-1.023,0.391-1.414,0L31,2.414l-2.293,2.293c-0.391,0.391-1.023,0.391-1.414,0L25,2.414l-2.293,2.293
		c-0.391,0.391-1.023,0.391-1.414,0L19,2.414l-2.293,2.293c-0.391,0.391-1.023,0.391-1.414,0L13,2.414l-2.293,2.293
		c-0.391,0.391-1.023,0.391-1.414,0L7,2.414L4.707,4.707c-0.391,0.391-1.023,0.391-1.414,0l-3-3c-0.391-0.391-0.391-1.023,0-1.414
		s1.023-0.391,1.414,0L4,2.586l2.293-2.293c0.391-0.391,1.023-0.391,1.414,0L10,2.586l2.293-2.293c0.391-0.391,1.023-0.391,1.414,0
		L16,2.586l2.293-2.293c0.391-0.391,1.023-0.391,1.414,0L22,2.586l2.293-2.293c0.391-0.391,1.023-0.391,1.414,0L28,2.586
		l2.293-2.293c0.391-0.391,1.023-0.391,1.414,0L34,2.586l2.293-2.293c0.391-0.391,1.023-0.391,1.414,0L40,2.586l2.293-2.293
		c0.391-0.391,1.023-0.391,1.414,0L46,2.586l2.293-2.293c0.391-0.391,1.023-0.391,1.414,0s0.391,1.023,0,1.414l-3,3
		C46.512,4.902,46.256,5,46,5z"/>
</g>
<g opacity="0.2">
	<path fill="#3FBF6A" d="M46,11c-0.256,0-0.512-0.098-0.707-0.293L43,8.414l-2.293,2.293c-0.391,0.391-1.023,0.391-1.414,0L37,8.414
		l-2.293,2.293c-0.391,0.391-1.023,0.391-1.414,0L31,8.414l-2.293,2.293c-0.391,0.391-1.023,0.391-1.414,0L25,8.414l-2.293,2.293
		c-0.391,0.391-1.023,0.391-1.414,0L19,8.414l-2.293,2.293c-0.391,0.391-1.023,0.391-1.414,0L13,8.414l-2.293,2.293
		c-0.391,0.391-1.023,0.391-1.414,0L7,8.414l-2.293,2.293c-0.391,0.391-1.023,0.391-1.414,0l-3-3c-0.391-0.391-0.391-1.023,0-1.414
		s1.023-0.391,1.414,0L4,8.586l2.293-2.293c0.391-0.391,1.023-0.391,1.414,0L10,8.586l2.293-2.293c0.391-0.391,1.023-0.391,1.414,0
		L16,8.586l2.293-2.293c0.391-0.391,1.023-0.391,1.414,0L22,8.586l2.293-2.293c0.391-0.391,1.023-0.391,1.414,0L28,8.586
		l2.293-2.293c0.391-0.391,1.023-0.391,1.414,0L34,8.586l2.293-2.293c0.391-0.391,1.023-0.391,1.414,0L40,8.586l2.293-2.293
		c0.391-0.391,1.023-0.391,1.414,0L46,8.586l2.293-2.293c0.391-0.391,1.023-0.391,1.414,0s0.391,1.023,0,1.414l-3,3
		C46.512,10.902,46.256,11,46,11z"/>
</g>
<g opacity="0.3">
	<path fill="#3FBF6A" d="M46,17c-0.256,0-0.512-0.098-0.707-0.293L43,14.414l-2.293,2.293c-0.391,0.391-1.023,0.391-1.414,0
		L37,14.414l-2.293,2.293c-0.391,0.391-1.023,0.391-1.414,0L31,14.414l-2.293,2.293c-0.391,0.391-1.023,0.391-1.414,0L25,14.414
		l-2.293,2.293c-0.391,0.391-1.023,0.391-1.414,0L19,14.414l-2.293,2.293c-0.391,0.391-1.023,0.391-1.414,0L13,14.414l-2.293,2.293
		c-0.391,0.391-1.023,0.391-1.414,0L7,14.414l-2.293,2.293c-0.391,0.391-1.023,0.391-1.414,0l-3-3c-0.391-0.391-0.391-1.023,0-1.414
		s1.023-0.391,1.414,0L4,14.586l2.293-2.293c0.391-0.391,1.023-0.391,1.414,0L10,14.586l2.293-2.293
		c0.391-0.391,1.023-0.391,1.414,0L16,14.586l2.293-2.293c0.391-0.391,1.023-0.391,1.414,0L22,14.586l2.293-2.293
		c0.391-0.391,1.023-0.391,1.414,0L28,14.586l2.293-2.293c0.391-0.391,1.023-0.391,1.414,0L34,14.586l2.293-2.293
		c0.391-0.391,1.023-0.391,1.414,0L40,14.586l2.293-2.293c0.391-0.391,1.023-0.391,1.414,0L46,14.586l2.293-2.293
		c0.391-0.391,1.023-0.391,1.414,0s0.391,1.023,0,1.414l-3,3C46.512,16.902,46.256,17,46,17z"/>
</g>
<g opacity="0.4">
	<path fill="#3FBF6A" d="M46,23c-0.256,0-0.512-0.098-0.707-0.293L43,20.414l-2.293,2.293c-0.391,0.391-1.023,0.391-1.414,0
		L37,20.414l-2.293,2.293c-0.391,0.391-1.023,0.391-1.414,0L31,20.414l-2.293,2.293c-0.391,0.391-1.023,0.391-1.414,0L25,20.414
		l-2.293,2.293c-0.391,0.391-1.023,0.391-1.414,0L19,20.414l-2.293,2.293c-0.391,0.391-1.023,0.391-1.414,0L13,20.414l-2.293,2.293
		c-0.391,0.391-1.023,0.391-1.414,0L7,20.414l-2.293,2.293c-0.391,0.391-1.023,0.391-1.414,0l-3-3c-0.391-0.391-0.391-1.023,0-1.414
		s1.023-0.391,1.414,0L4,20.586l2.293-2.293c0.391-0.391,1.023-0.391,1.414,0L10,20.586l2.293-2.293
		c0.391-0.391,1.023-0.391,1.414,0L16,20.586l2.293-2.293c0.391-0.391,1.023-0.391,1.414,0L22,20.586l2.293-2.293
		c0.391-0.391,1.023-0.391,1.414,0L28,20.586l2.293-2.293c0.391-0.391,1.023-0.391,1.414,0L34,20.586l2.293-2.293
		c0.391-0.391,1.023-0.391,1.414,0L40,20.586l2.293-2.293c0.391-0.391,1.023-0.391,1.414,0L46,20.586l2.293-2.293
		c0.391-0.391,1.023-0.391,1.414,0s0.391,1.023,0,1.414l-3,3C46.512,22.902,46.256,23,46,23z"/>
</g>
<g opacity="0.5">
	<path fill="#3FBF6A" d="M46,29c-0.256,0-0.512-0.098-0.707-0.293L43,26.414l-2.293,2.293c-0.391,0.391-1.023,0.391-1.414,0
		L37,26.414l-2.293,2.293c-0.391,0.391-1.023,0.391-1.414,0L31,26.414l-2.293,2.293c-0.391,0.391-1.023,0.391-1.414,0L25,26.414
		l-2.293,2.293c-0.391,0.391-1.023,0.391-1.414,0L19,26.414l-2.293,2.293c-0.391,0.391-1.023,0.391-1.414,0L13,26.414l-2.293,2.293
		c-0.391,0.391-1.023,0.391-1.414,0L7,26.414l-2.293,2.293c-0.391,0.391-1.023,0.391-1.414,0l-3-3c-0.391-0.391-0.391-1.023,0-1.414
		s1.023-0.391,1.414,0L4,26.586l2.293-2.293c0.391-0.391,1.023-0.391,1.414,0L10,26.586l2.293-2.293
		c0.391-0.391,1.023-0.391,1.414,0L16,26.586l2.293-2.293c0.391-0.391,1.023-0.391,1.414,0L22,26.586l2.293-2.293
		c0.391-0.391,1.023-0.391,1.414,0L28,26.586l2.293-2.293c0.391-0.391,1.023-0.391,1.414,0L34,26.586l2.293-2.293
		c0.391-0.391,1.023-0.391,1.414,0L40,26.586l2.293-2.293c0.391-0.391,1.023-0.391,1.414,0L46,26.586l2.293-2.293
		c0.391-0.391,1.023-0.391,1.414,0s0.391,1.023,0,1.414l-3,3C46.512,28.902,46.256,29,46,29z"/>
</g>
</svg>
