<?xml version="1.0" encoding="utf-8"?>
<!-- Generator: Adobe Illustrator 16.2.1, SVG Export Plug-In . SVG Version: 6.00 Build 0)  -->
<!DOCTYPE svg PUBLIC "-//W3C//DTD SVG 1.1//EN" "http://www.w3.org/Graphics/SVG/1.1/DTD/svg11.dtd">
<svg version="1.1" id="Layer_1" xmlns="http://www.w3.org/2000/svg" xmlns:xlink="http://www.w3.org/1999/xlink" x="0px" y="0px"
	 width="55px" height="80px" viewBox="0 0 55 80" enable-background="new 0 0 55 80" xml:space="preserve">
<g>
	<path fill="#FFFF00" d="M5,80c-2.761,0-5-2.238-5-5V5c0-2.761,2.239-5,5-5s5,2.239,5,5v70C10,77.762,7.761,80,5,80z"/>
</g>
<g>
	<path fill="#FFFF00" d="M20,80c-2.761,0-5-2.238-5-5V45c0-2.762,2.239-5,5-5s5,2.238,5,5v30C25,77.762,22.761,80,20,80z"/>
</g>
<g>
	<path fill="#FFFF00" d="M35,80c-2.762,0-5-2.238-5-5V45c0-2.762,2.238-5,5-5s5,2.238,5,5v30C40,77.762,37.762,80,35,80z"/>
</g>
<g>
	<path fill="#FFFF00" d="M50,80c-2.762,0-5-2.238-5-5V45c0-2.762,2.238-5,5-5s5,2.238,5,5v30C55,77.762,52.762,80,50,80z"/>
</g>
</svg>
