<?xml version="1.0" encoding="utf-8"?>
<!-- Generator: Adobe Illustrator 16.2.1, SVG Export Plug-In . SVG Version: 6.00 Build 0)  -->
<!DOCTYPE svg PUBLIC "-//W3C//DTD SVG 1.1//EN" "http://www.w3.org/Graphics/SVG/1.1/DTD/svg11.dtd">
<svg version="1.1" id="Layer_1" xmlns="http://www.w3.org/2000/svg" xmlns:xlink="http://www.w3.org/1999/xlink" x="0px" y="0px"
	 width="50px" height="29px" viewBox="0 0 50 29" enable-background="new 0 0 50 29" xml:space="preserve">
<g opacity="0.1">
	<path fill="#5A55BD" d="M4,24c0.256,0,0.512,0.098,0.707,0.293L7,26.586l2.293-2.293c0.391-0.391,1.023-0.391,1.414,0L13,26.586
		l2.293-2.293c0.391-0.391,1.023-0.391,1.414,0L19,26.586l2.293-2.293c0.391-0.391,1.023-0.391,1.414,0L25,26.586l2.293-2.293
		c0.391-0.391,1.023-0.391,1.414,0L31,26.586l2.293-2.293c0.391-0.391,1.023-0.391,1.414,0L37,26.586l2.293-2.293
		c0.391-0.391,1.023-0.391,1.414,0L43,26.586l2.293-2.293c0.391-0.391,1.023-0.391,1.414,0l3,3c0.391,0.391,0.391,1.023,0,1.414
		s-1.023,0.391-1.414,0L46,26.414l-2.293,2.293c-0.391,0.391-1.023,0.391-1.414,0L40,26.414l-2.293,2.293
		c-0.391,0.391-1.023,0.391-1.414,0L34,26.414l-2.293,2.293c-0.391,0.391-1.023,0.391-1.414,0L28,26.414l-2.293,2.293
		c-0.391,0.391-1.023,0.391-1.414,0L22,26.414l-2.293,2.293c-0.391,0.391-1.023,0.391-1.414,0L16,26.414l-2.293,2.293
		c-0.391,0.391-1.023,0.391-1.414,0L10,26.414l-2.293,2.293c-0.391,0.391-1.023,0.391-1.414,0L4,26.414l-2.293,2.293
		c-0.391,0.391-1.023,0.391-1.414,0s-0.391-1.023,0-1.414l3-3C3.488,24.098,3.744,24,4,24z"/>
</g>
<g opacity="0.2">
	<path fill="#5A55BD" d="M4,18c0.256,0,0.512,0.098,0.707,0.293L7,20.586l2.293-2.293c0.391-0.391,1.023-0.391,1.414,0L13,20.586
		l2.293-2.293c0.391-0.391,1.023-0.391,1.414,0L19,20.586l2.293-2.293c0.391-0.391,1.023-0.391,1.414,0L25,20.586l2.293-2.293
		c0.391-0.391,1.023-0.391,1.414,0L31,20.586l2.293-2.293c0.391-0.391,1.023-0.391,1.414,0L37,20.586l2.293-2.293
		c0.391-0.391,1.023-0.391,1.414,0L43,20.586l2.293-2.293c0.391-0.391,1.023-0.391,1.414,0l3,3c0.391,0.391,0.391,1.023,0,1.414
		s-1.023,0.391-1.414,0L46,20.414l-2.293,2.293c-0.391,0.391-1.023,0.391-1.414,0L40,20.414l-2.293,2.293
		c-0.391,0.391-1.023,0.391-1.414,0L34,20.414l-2.293,2.293c-0.391,0.391-1.023,0.391-1.414,0L28,20.414l-2.293,2.293
		c-0.391,0.391-1.023,0.391-1.414,0L22,20.414l-2.293,2.293c-0.391,0.391-1.023,0.391-1.414,0L16,20.414l-2.293,2.293
		c-0.391,0.391-1.023,0.391-1.414,0L10,20.414l-2.293,2.293c-0.391,0.391-1.023,0.391-1.414,0L4,20.414l-2.293,2.293
		c-0.391,0.391-1.023,0.391-1.414,0s-0.391-1.023,0-1.414l3-3C3.488,18.098,3.744,18,4,18z"/>
</g>
<g opacity="0.3">
	<path fill="#5A55BD" d="M4,12c0.256,0,0.512,0.098,0.707,0.293L7,14.586l2.293-2.293c0.391-0.391,1.023-0.391,1.414,0L13,14.586
		l2.293-2.293c0.391-0.391,1.023-0.391,1.414,0L19,14.586l2.293-2.293c0.391-0.391,1.023-0.391,1.414,0L25,14.586l2.293-2.293
		c0.391-0.391,1.023-0.391,1.414,0L31,14.586l2.293-2.293c0.391-0.391,1.023-0.391,1.414,0L37,14.586l2.293-2.293
		c0.391-0.391,1.023-0.391,1.414,0L43,14.586l2.293-2.293c0.391-0.391,1.023-0.391,1.414,0l3,3c0.391,0.391,0.391,1.023,0,1.414
		s-1.023,0.391-1.414,0L46,14.414l-2.293,2.293c-0.391,0.391-1.023,0.391-1.414,0L40,14.414l-2.293,2.293
		c-0.391,0.391-1.023,0.391-1.414,0L34,14.414l-2.293,2.293c-0.391,0.391-1.023,0.391-1.414,0L28,14.414l-2.293,2.293
		c-0.391,0.391-1.023,0.391-1.414,0L22,14.414l-2.293,2.293c-0.391,0.391-1.023,0.391-1.414,0L16,14.414l-2.293,2.293
		c-0.391,0.391-1.023,0.391-1.414,0L10,14.414l-2.293,2.293c-0.391,0.391-1.023,0.391-1.414,0L4,14.414l-2.293,2.293
		c-0.391,0.391-1.023,0.391-1.414,0s-0.391-1.023,0-1.414l3-3C3.488,12.098,3.744,12,4,12z"/>
</g>
<g opacity="0.4">
	<path fill="#5A55BD" d="M4,6c0.256,0,0.512,0.098,0.707,0.293L7,8.586l2.293-2.293c0.391-0.391,1.023-0.391,1.414,0L13,8.586
		l2.293-2.293c0.391-0.391,1.023-0.391,1.414,0L19,8.586l2.293-2.293c0.391-0.391,1.023-0.391,1.414,0L25,8.586l2.293-2.293
		c0.391-0.391,1.023-0.391,1.414,0L31,8.586l2.293-2.293c0.391-0.391,1.023-0.391,1.414,0L37,8.586l2.293-2.293
		c0.391-0.391,1.023-0.391,1.414,0L43,8.586l2.293-2.293c0.391-0.391,1.023-0.391,1.414,0l3,3c0.391,0.391,0.391,1.023,0,1.414
		s-1.023,0.391-1.414,0L46,8.414l-2.293,2.293c-0.391,0.391-1.023,0.391-1.414,0L40,8.414l-2.293,2.293
		c-0.391,0.391-1.023,0.391-1.414,0L34,8.414l-2.293,2.293c-0.391,0.391-1.023,0.391-1.414,0L28,8.414l-2.293,2.293
		c-0.391,0.391-1.023,0.391-1.414,0L22,8.414l-2.293,2.293c-0.391,0.391-1.023,0.391-1.414,0L16,8.414l-2.293,2.293
		c-0.391,0.391-1.023,0.391-1.414,0L10,8.414l-2.293,2.293c-0.391,0.391-1.023,0.391-1.414,0L4,8.414l-2.293,2.293
		c-0.391,0.391-1.023,0.391-1.414,0s-0.391-1.023,0-1.414l3-3C3.488,6.098,3.744,6,4,6z"/>
</g>
<g opacity="0.5">
	<path fill="#5A55BD" d="M4,0c0.256,0,0.512,0.098,0.707,0.293L7,2.586l2.293-2.293c0.391-0.391,1.023-0.391,1.414,0L13,2.586
		l2.293-2.293c0.391-0.391,1.023-0.391,1.414,0L19,2.586l2.293-2.293c0.391-0.391,1.023-0.391,1.414,0L25,2.586l2.293-2.293
		c0.391-0.391,1.023-0.391,1.414,0L31,2.586l2.293-2.293c0.391-0.391,1.023-0.391,1.414,0L37,2.586l2.293-2.293
		c0.391-0.391,1.023-0.391,1.414,0L43,2.586l2.293-2.293c0.391-0.391,1.023-0.391,1.414,0l3,3c0.391,0.391,0.391,1.023,0,1.414
		s-1.023,0.391-1.414,0L46,2.414l-2.293,2.293c-0.391,0.391-1.023,0.391-1.414,0L40,2.414l-2.293,2.293
		c-0.391,0.391-1.023,0.391-1.414,0L34,2.414l-2.293,2.293c-0.391,0.391-1.023,0.391-1.414,0L28,2.414l-2.293,2.293
		c-0.391,0.391-1.023,0.391-1.414,0L22,2.414l-2.293,2.293c-0.391,0.391-1.023,0.391-1.414,0L16,2.414l-2.293,2.293
		c-0.391,0.391-1.023,0.391-1.414,0L10,2.414L7.707,4.707c-0.391,0.391-1.023,0.391-1.414,0L4,2.414L1.707,4.707
		c-0.391,0.391-1.023,0.391-1.414,0s-0.391-1.023,0-1.414l3-3C3.488,0.098,3.744,0,4,0z"/>
</g>
</svg>
