<?xml version="1.0" encoding="utf-8"?>
<!-- Generator: Adobe Illustrator 16.2.1, SVG Export Plug-In . SVG Version: 6.00 Build 0)  -->
<!DOCTYPE svg PUBLIC "-//W3C//DTD SVG 1.1//EN" "http://www.w3.org/Graphics/SVG/1.1/DTD/svg11.dtd">
<svg version="1.1" id="Layer_1" xmlns="http://www.w3.org/2000/svg" xmlns:xlink="http://www.w3.org/1999/xlink" x="0px" y="0px"
	 width="80px" height="152px" viewBox="0 0 80 152" enable-background="new 0 0 80 152" xml:space="preserve">
<g>
	<g>
		<path d="M65.074,129.5c-0.327,0-0.656-0.064-0.966-0.194c-0.7-0.293-1.229-0.889-1.438-1.619
			c-0.929-3.249-4.397-8.846-9.983-11.215c-1.69,2.073-3.392,3.922-4.979,5.407c-0.464,0.433-1.073,0.674-1.708,0.674l-11.998,0.002
			c-0.635,0-1.247-0.241-1.71-0.676c-0.169-0.158-0.344-0.329-0.519-0.499c-1.483-1.442-2.962-3.07-4.443-4.887
			c-5.554,2.385-9.002,7.961-9.926,11.193c-0.208,0.727-0.732,1.32-1.427,1.615c-0.313,0.133-0.645,0.198-0.977,0.198
			c-0.405,0-0.81-0.099-1.177-0.294c-6.918-3.69-11.228-11.631-11.246-20.722c0-0.037,0.001-0.108,0.003-0.145
			c-0.001-0.485,0.013-1.05,0.046-1.613c0.002-0.033,0.011-0.141,0.014-0.174c0.034-0.521,0.079-1.054,0.143-1.586l0.031-0.215
			c0.071-0.538,0.143-1.036,0.233-1.531c0.017-0.093,0.037-0.184,0.057-0.274c0.108-0.543,0.203-1.003,0.315-1.458
			c0.028-0.11,0.124-0.449,0.124-0.449c0.112-0.425,0.226-0.847,0.357-1.263c0.04-0.126,0.083-0.25,0.128-0.373l0.094-0.271
			c0.117-0.348,0.235-0.695,0.369-1.037c0.055-0.141,0.115-0.281,0.176-0.421l0.15-0.355c0.121-0.29,0.242-0.58,0.375-0.864
			c0.073-0.157,0.157-0.319,0.241-0.48l0.186-0.366c0.124-0.25,0.249-0.499,0.384-0.744c0.098-0.177,0.203-0.349,0.309-0.521
			l0.225-0.375c0.127-0.218,0.256-0.435,0.394-0.646c0.12-0.184,0.246-0.36,0.373-0.536l0.265-0.376
			c0.13-0.188,0.26-0.376,0.399-0.558c0.146-0.191,0.299-0.375,0.454-0.559l0.301-0.365c0.13-0.161,0.261-0.321,0.399-0.477
			c0.179-0.199,0.359-0.385,0.542-0.568l0.312-0.323c0.137-0.145,0.274-0.288,0.418-0.426c0.196-0.188,0.4-0.365,0.605-0.542
			l0.338-0.297c0.145-0.131,0.29-0.261,0.442-0.385c0.031-0.025,0.063-0.051,0.095-0.075C8.97,78.995,7.5,69.977,7.5,61
			c0-15.64,11.227-29.04,26.41-31.92l2.231-14.874C34.521,13.003,33.5,11.08,33.5,9c0-3.584,2.916-6.5,6.5-6.5s6.5,2.916,6.5,6.5
			c0,2.08-1.021,4.003-2.642,5.206L46.09,29.08C61.273,31.96,72.5,45.36,72.5,61c0,8.959-1.465,17.963-4.357,26.79
			c0.055,0.043,0.108,0.086,0.162,0.129c0.146,0.118,0.288,0.245,0.429,0.373l0.337,0.296c0.21,0.182,0.42,0.363,0.619,0.555
			c0.146,0.14,0.287,0.288,0.427,0.437l0.304,0.313c0.185,0.188,0.369,0.375,0.543,0.571c0.133,0.148,0.265,0.311,0.395,0.473
			l0.293,0.354c0.159,0.189,0.317,0.379,0.467,0.574c0.124,0.163,0.24,0.33,0.355,0.498l0.28,0.398
			c0.138,0.19,0.274,0.383,0.403,0.579c0.131,0.202,0.251,0.406,0.371,0.61l0.251,0.419c0.104,0.171,0.209,0.342,0.306,0.517
			c0.136,0.248,0.26,0.496,0.383,0.744l0.188,0.372c0.083,0.159,0.165,0.318,0.241,0.48c0.126,0.272,0.24,0.546,0.354,0.82
			l0.165,0.392c0.064,0.147,0.128,0.295,0.185,0.444c0.121,0.309,0.232,0.637,0.342,0.964l0.11,0.318
			c0.047,0.131,0.094,0.263,0.136,0.396c0.122,0.388,0.227,0.78,0.331,1.172c0,0,0.12,0.426,0.147,0.535
			c0.115,0.471,0.208,0.935,0.298,1.398c0.036,0.159,0.057,0.255,0.074,0.353c0.09,0.499,0.161,1,0.225,1.503
			c0.017,0.1,0.028,0.183,0.038,0.267c0.062,0.516,0.105,1.052,0.14,1.587c0.006,0.058,0.012,0.132,0.015,0.205
			c0.03,0.526,0.043,1.094,0.042,1.66c-0.043,9.172-4.187,16.85-11.086,20.616c-0.048,0.028-0.093,0.055-0.14,0.08
			C65.899,129.397,65.487,129.5,65.074,129.5z"/>
		<path d="M40,5c2.209,0,4,1.791,4,4c0,1.816-1.219,3.333-2.877,3.82l2.766,18.439C58.619,33.167,70,45.75,70,61
			c0,10.146-1.936,19.507-4.816,27.732c0.068,0.046,0.145,0.086,0.213,0.133c0.191,0.131,0.367,0.276,0.553,0.412
			c0.262,0.192,0.529,0.379,0.779,0.582c0.18,0.146,0.345,0.306,0.519,0.457c0.239,0.209,0.485,0.413,0.714,0.632
			c0.175,0.167,0.334,0.347,0.501,0.52c0.212,0.218,0.431,0.43,0.632,0.656c0.166,0.186,0.315,0.383,0.474,0.574
			c0.188,0.227,0.383,0.448,0.561,0.682c0.155,0.204,0.294,0.418,0.442,0.627c0.164,0.232,0.336,0.461,0.491,0.699
			c0.155,0.239,0.295,0.489,0.441,0.734c0.13,0.219,0.27,0.433,0.393,0.655c0.151,0.275,0.287,0.559,0.428,0.84
			c0.102,0.202,0.212,0.4,0.308,0.605c0.143,0.307,0.268,0.621,0.398,0.935c0.077,0.187,0.164,0.37,0.236,0.559
			c0.133,0.341,0.246,0.688,0.363,1.035c0.057,0.167,0.121,0.33,0.174,0.498c0.117,0.374,0.217,0.754,0.317,1.133
			c0.038,0.145,0.084,0.287,0.12,0.432c0.103,0.419,0.188,0.843,0.27,1.267c0.021,0.107,0.049,0.213,0.068,0.321
			c0.082,0.455,0.146,0.913,0.204,1.371c0.011,0.078,0.025,0.156,0.034,0.234c0.059,0.488,0.098,0.978,0.129,1.467
			c0.002,0.049,0.012,0.098,0.014,0.146c0.029,0.519,0.041,1.037,0.041,1.555c0,0.02,0,0.04,0,0.061
			c0,7.534-3.31,14.848-9.815,18.382c-0.006,0.002-0.011,0.006-0.017,0.009c-0.031,0.018-0.062,0.038-0.094,0.056
			c-1.318-4.613-6.111-11.395-13.232-13.481c-2.09,2.696-4.096,4.901-5.842,6.534l-11.999,0.002c-0.179-0.168-0.366-0.351-0.55-0.53
			c-1.61-1.565-3.409-3.577-5.281-5.99C21.083,115.643,16.314,122.4,15,127c-6.602-3.521-9.907-10.917-9.922-18.521
			c0-0.021,0.001-0.041,0.001-0.062c0-0.515,0.013-1.03,0.043-1.545c0.003-0.05,0.01-0.099,0.013-0.148
			c0.031-0.486,0.072-0.973,0.131-1.458c0.009-0.078,0.024-0.156,0.034-0.233c0.059-0.456,0.125-0.911,0.207-1.364
			c0.02-0.109,0.047-0.217,0.069-0.326c0.082-0.42,0.168-0.84,0.271-1.255c0.034-0.138,0.078-0.273,0.114-0.41
			c0.102-0.385,0.205-0.77,0.324-1.148c0.051-0.162,0.114-0.32,0.168-0.481c0.119-0.351,0.235-0.701,0.369-1.045
			c0.072-0.185,0.156-0.364,0.232-0.548c0.131-0.314,0.259-0.631,0.403-0.939c0.095-0.205,0.205-0.402,0.306-0.604
			c0.141-0.28,0.276-0.562,0.428-0.837c0.12-0.217,0.255-0.425,0.382-0.638c0.149-0.251,0.292-0.505,0.452-0.749
			c0.146-0.223,0.306-0.436,0.459-0.653c0.157-0.224,0.308-0.451,0.473-0.669c0.172-0.227,0.361-0.44,0.542-0.66
			c0.164-0.197,0.319-0.4,0.49-0.593c0.2-0.224,0.416-0.435,0.626-0.65c0.169-0.174,0.33-0.354,0.505-0.522
			c0.225-0.215,0.466-0.414,0.701-0.619c0.178-0.155,0.348-0.318,0.532-0.468c0.249-0.202,0.514-0.388,0.774-0.578
			c0.187-0.137,0.364-0.283,0.556-0.414c0.047-0.032,0.099-0.061,0.146-0.092C11.941,80.535,10,71.162,10,61
			c0-15.25,11.381-27.833,26.111-29.741l2.766-18.439C37.219,12.333,36,10.816,36,9C36,6.791,37.791,5,40,5 M40,0
			c-4.962,0-9,4.038-9,9c0,2.334,0.927,4.526,2.47,6.16l-1.776,11.842C16.235,30.769,5,44.763,5,61
			c0,8.704,1.341,17.442,3.992,26.026c-0.11,0.099-0.219,0.198-0.326,0.301c-0.178,0.171-0.345,0.345-0.51,0.52l-0.125,0.132
			l-0.148,0.15c-0.21,0.213-0.418,0.428-0.618,0.649c-0.177,0.199-0.333,0.39-0.488,0.581l-0.126,0.155L6.51,89.684
			c-0.182,0.215-0.361,0.432-0.532,0.655c-0.163,0.214-0.315,0.433-0.467,0.652l-0.117,0.168l-0.119,0.166
			c-0.149,0.207-0.297,0.415-0.436,0.628c-0.162,0.249-0.311,0.499-0.458,0.751L4.277,92.88l-0.094,0.153
			c-0.126,0.204-0.25,0.409-0.366,0.619c-0.154,0.279-0.297,0.562-0.438,0.845L3.293,94.67l-0.077,0.149
			c-0.102,0.194-0.202,0.391-0.295,0.591c-0.142,0.303-0.278,0.626-0.413,0.95L2.44,96.528l-0.063,0.146
			c-0.075,0.172-0.148,0.343-0.216,0.517c-0.146,0.375-0.277,0.758-0.406,1.142l-0.038,0.112l-0.039,0.11
			c-0.056,0.154-0.111,0.311-0.161,0.468c-0.144,0.454-0.268,0.914-0.39,1.374l-0.021,0.073c-0.04,0.138-0.078,0.275-0.113,0.414
			c-0.134,0.543-0.239,1.062-0.325,1.5c-0.032,0.142-0.058,0.263-0.08,0.385c-0.087,0.476-0.164,0.98-0.244,1.592
			c-0.018,0.116-0.033,0.217-0.045,0.316c-0.062,0.512-0.112,1.062-0.152,1.673c-0.007,0.079-0.013,0.155-0.018,0.231
			c-0.033,0.562-0.051,1.156-0.052,1.762c-0.001,0.053-0.001,0.104-0.001,0.157c0.023,10.01,4.839,18.788,12.569,22.912
			C13.38,131.803,14.189,132,15,132c0.663,0,1.328-0.132,1.953-0.397c1.39-0.59,2.439-1.776,2.854-3.229
			c0.743-2.599,3.24-6.5,6.895-8.74c1.098,1.27,2.189,2.432,3.263,3.477l0.062,0.06c0.187,0.182,0.375,0.364,0.555,0.533
			c0.927,0.869,2.149,1.353,3.419,1.353c0,0,0,0,0.001,0l11.999-0.002c1.268,0,2.488-0.482,3.414-1.348
			c1.258-1.176,2.578-2.563,3.907-4.101c3.681,2.233,6.197,6.154,6.944,8.77c0.417,1.46,1.476,2.651,2.876,3.238
			c0.619,0.259,1.276,0.388,1.932,0.388c0.826,0,1.649-0.205,2.394-0.61c0.064-0.035,0.128-0.07,0.189-0.107
			C75.339,127.064,80,118.585,80,108.578c0-0.033,0-0.08,0-0.122c0-0.621-0.016-1.209-0.049-1.786
			c-0.004-0.079-0.011-0.159-0.018-0.238c-0.042-0.648-0.092-1.19-0.152-1.702c-0.01-0.082-0.026-0.202-0.046-0.321
			c-0.076-0.604-0.151-1.105-0.236-1.575c-0.024-0.133-0.052-0.265-0.082-0.396c-0.09-0.462-0.192-0.972-0.32-1.494
			c-0.041-0.163-0.079-0.302-0.119-0.439l-0.023-0.081l-0.02-0.073c-0.113-0.428-0.229-0.855-0.36-1.277
			c-0.054-0.171-0.112-0.336-0.172-0.501l-0.038-0.107l-0.053-0.157c-0.123-0.365-0.247-0.729-0.387-1.088
			c-0.062-0.16-0.14-0.343-0.219-0.524l-0.057-0.13l-0.089-0.215c-0.127-0.308-0.256-0.615-0.396-0.917
			c-0.095-0.202-0.193-0.396-0.294-0.587l-0.08-0.155l-0.084-0.168c-0.139-0.281-0.279-0.561-0.43-0.835
			c-0.121-0.22-0.245-0.424-0.37-0.627l-0.105-0.173l-0.117-0.199c-0.139-0.237-0.279-0.475-0.429-0.704
			c-0.154-0.237-0.313-0.461-0.474-0.684l-0.127-0.178l-0.123-0.177c-0.138-0.2-0.277-0.399-0.425-0.594
			c-0.176-0.23-0.36-0.452-0.547-0.674l-0.142-0.168l-0.111-0.139c-0.158-0.197-0.318-0.393-0.487-0.582
			c-0.191-0.216-0.406-0.437-0.623-0.655l-0.152-0.154l-0.104-0.111c-0.171-0.183-0.344-0.363-0.526-0.536
			c-0.126-0.121-0.256-0.24-0.39-0.357C73.664,78.407,75,69.686,75,61c0-16.237-11.235-30.231-26.694-33.998L46.53,15.16
			C48.073,13.526,49,11.334,49,9C49,4.038,44.963,0,40,0L40,0z"/>
	</g>
	<g>
		<path d="M39.782,150c-1.194,0-2.223-1.064-2.453-2.238L34.8,134.732l-0.453,0.187l-0.847,0.608
			c-0.444,0.333-0.972,0.486-1.5,0.486c-0.506,0-1.012-0.16-1.446-0.467c-0.886-0.629-1.265-1.76-0.938-2.797l3-9.251
			C32.944,122.459,33.909,122,35,122h10c1.096,0,2.063,0.463,2.388,1.51l2.945,9.376c0.337,1.086-0.102,2.2-1.067,2.801
			c-0.407,0.253-0.864,0.346-1.319,0.346c-0.624,0-1.243-0.248-1.72-0.7l-0.774-0.741l-0.544-0.268l-1.451,6.268l-1.213,7.124
			c-0.208,1.187-1.232,2.285-2.438,2.285C39.798,150,39.79,150,39.782,150z"/>
		<path d="M45,124l2.945,9.501l-1.055-0.999l-3.712-1.8L41,140.118v0.009l-1.218,6.936l-3.179-16.239L33,132.75l-1,0.75l3-9.5H45
			 M45,119H35c-2.182,0-4.111,1.414-4.768,3.494l-3,9.5c-0.654,2.072,0.104,4.329,1.877,5.585c0.867,0.614,1.879,0.921,2.891,0.921
			c0.333,0,0.665-0.033,0.992-0.1l1.884,9.592c0.459,2.348,2.518,4.008,4.906,4.008c0.016,0,0.033,0,0.049,0
			c2.409,0,4.459-1.73,4.876-4.104l1.201-6.824l0.644-2.776c0.454,0.132,0.924,0.202,1.395,0.202c0.911,0,1.826-0.246,2.641-0.753
			c1.931-1.201,2.808-3.553,2.134-5.725l-2.945-9.5C49.127,120.426,47.191,119,45,119L45,119z"/>
	</g>
	<polygon fill="#808080" points="39,12 41,12 44,32 36,32 	"/>
	<polygon fill="#B3B3B3" points="36,32 38.174,32 39.913,12 39,12 	"/>
	<polygon fill="#F7931E" points="38,130 32,133 35,123 	"/>
	<polyline fill="#F7931E" points="42,130 48,133 45,123 	"/>
	<path fill="#269149" d="M21,86c-19,5-21,33-6,41c2-7,12-19,26-12"/>
	<path fill="#269149" d="M59.074,86c19,5,21,33,6,41c-2-7-12-19-26-12"/>
	<path fill="#7DBD92" d="M26.742,94.326L21,86c-18.911,4.977-20.975,32.729-6.204,40.878
		C10.159,118.544,5.867,103.606,26.742,94.326z"/>
	<path fill="#7DBD92" d="M59.074,86l-5.76,8.352c20.864,9.307,16.5,24.279,11.854,32.593C80.062,118.875,78.033,90.989,59.074,86z"
		/>
	<polygon fill="#F15A24" points="37.25,128.25 33,132.5 38,130 	"/>
	<polygon fill="#F15A24" points="47,132.5 42.75,128.25 42,130 	"/>
	<circle fill="#269149" cx="40" cy="9" r="4"/>
	<circle fill="#7DBD92" cx="39" cy="9" r="2"/>
	<path fill="#3FBF6A" d="M70,61c0,28.515-15.245,50.865-24,59.053l-11.999,0.002C25.247,111.867,10,89.516,10,61
		c0-16.568,13.432-30,30-30S70,44.432,70,61z"/>
	<path fill="#8CD9A6" d="M42.18,31.087C41.459,31.036,40.734,31,40,31c-1.132,0-2.248,0.068-3.347,0.19
		c-7.26,4.449-27.458,23.372-3.202,88.334c0.185,0.18,0.371,0.362,0.55,0.53l11.351-0.002C70.105,54.165,49.312,35.361,42.18,31.087
		z"/>
	<circle fill="#BAE8CA" cx="40" cy="66" r="15"/>
	<circle fill="#132B19" cx="40" cy="66" r="12"/>
	<polygon fill="#F14216" points="35,123 45,123 40,147 	"/>
	<path fill="#425547" d="M42,66l3.308-10.75C43.706,54.457,41.908,54,40,54c-0.451,0-0.894,0.029-1.332,0.078L35,66h3l-3.308,10.75
		C36.294,77.543,38.091,78,40,78c0.451,0,0.894-0.029,1.332-0.078L45,66H42z"/>
	<polygon fill="#F16A16" points="41.436,140.111 40,131.5 38.565,140.111 40,147 	"/>
</g>
</svg>
