<?xml version="1.0" encoding="utf-8"?>
<!-- Generator: Adobe Illustrator 16.2.1, SVG Export Plug-In . SVG Version: 6.00 Build 0)  -->
<!DOCTYPE svg PUBLIC "-//W3C//DTD SVG 1.1//EN" "http://www.w3.org/Graphics/SVG/1.1/DTD/svg11.dtd">
<svg version="1.1" id="Layer_1" xmlns="http://www.w3.org/2000/svg" xmlns:xlink="http://www.w3.org/1999/xlink" x="0px" y="0px"
	 width="80px" height="152px" viewBox="0 0 80 152" enable-background="new 0 0 80 152" xml:space="preserve">
<g>
	<path d="M0.088,45.33c0.004,0.079,0.03,0.159,0.037,0.238c0.042,0.648,0.102,1.19,0.162,1.702c0.01,0.082,0.031,0.202,0.051,0.321
		c0.076,0.604,0.154,1.105,0.239,1.575c0.024,0.133,0.053,0.265,0.083,0.396c0.09,0.462,0.193,0.972,0.321,1.494
		C1.021,51.22,1.06,51.358,1.1,51.496l0.024,0.081l0.02,0.073c0.113,0.428,0.229,0.855,0.36,1.277
		c0.054,0.171,0.112,0.336,0.172,0.501l0.038,0.107l0.053,0.157c0.123,0.365,0.247,0.729,0.387,1.088
		c0.062,0.16,0.14,0.343,0.219,0.524l0.057,0.13l0.089,0.215c0.127,0.308,0.256,0.615,0.396,0.917
		c0.095,0.202,0.193,0.396,0.294,0.587l0.08,0.155l0.084,0.168c0.139,0.281,0.279,0.561,0.43,0.835
		c0.121,0.22,0.245,0.424,0.37,0.627l0.105,0.173l0.117,0.199c0.139,0.237,0.279,0.475,0.429,0.704
		c0.154,0.237,0.313,0.461,0.474,0.684l0.127,0.178l0.123,0.177c0.138,0.2,0.277,0.399,0.425,0.594
		c0.176,0.23,0.36,0.452,0.547,0.673l0.142,0.17l0.111,0.139c0.158,0.196,0.318,0.393,0.487,0.581
		c0.191,0.216,0.406,0.437,0.623,0.655l0.152,0.154l0.104,0.111c0.171,0.182,0.344,0.363,0.526,0.537
		c0.126,0.12,0.256,0.238,0.39,0.357C6.414,73.594,5.078,82.313,5.078,91c0,16.236,11.235,30.231,26.694,33.998l1.775,11.842
		c-1.543,1.635-2.47,3.826-2.47,6.16c0,4.962,4.037,9,9,9c4.962,0,9-4.037,9-9c0-2.334-0.928-4.525-2.471-6.16l1.776-11.842
		C63.843,121.231,75.078,107.236,75.078,91c0-8.704-1.342-17.442-3.992-26.027c0.11-0.098,0.219-0.197,0.326-0.3
		c0.178-0.171,0.345-0.345,0.51-0.52l0.125-0.132l0.148-0.15c0.21-0.213,0.418-0.428,0.617-0.649
		c0.178-0.199,0.334-0.39,0.488-0.581l0.126-0.155l0.142-0.169c0.182-0.215,0.361-0.432,0.531-0.655
		c0.162-0.214,0.315-0.433,0.467-0.652l0.117-0.168l0.119-0.166c0.148-0.207,0.297-0.415,0.436-0.628
		c0.162-0.249,0.311-0.499,0.459-0.751l0.104-0.176l0.094-0.153c0.126-0.204,0.25-0.409,0.366-0.619
		c0.154-0.279,0.297-0.562,0.438-0.845l0.086-0.173l0.077-0.149c0.102-0.194,0.202-0.391,0.295-0.591
		c0.142-0.303,0.277-0.626,0.412-0.95l0.069-0.168l0.063-0.146c0.074-0.172,0.147-0.343,0.216-0.517
		c0.146-0.375,0.276-0.758,0.406-1.142l0.038-0.112l0.039-0.11c0.056-0.154,0.11-0.311,0.16-0.468
		c0.144-0.454,0.268-0.914,0.39-1.374l0.021-0.073c0.039-0.138,0.078-0.275,0.112-0.414c0.134-0.543,0.239-1.062,0.325-1.5
		c0.031-0.142,0.058-0.263,0.079-0.385c0.087-0.476,0.164-0.98,0.244-1.592c0.018-0.116,0.032-0.217,0.045-0.316
		c0.062-0.512,0.111-1.062,0.151-1.673c0.008-0.079,0.015-0.155,0.019-0.231C79.98,44.856,80,44.263,80,43.657
		c0-0.053,0-0.104,0-0.157c0-10.01-4.839-18.788-12.569-22.912C66.698,20.197,65.889,20,65.078,20c-0.663,0-1.328,0.132-1.953,0.397
		c-1.391,0.59-2.439,1.776-2.854,3.229c-0.743,2.599-3.24,6.5-6.895,8.74c-1.099-1.27-2.189-2.432-3.264-3.477l-0.055-0.054
		l2.788-8.831c0.654-2.072-0.104-4.329-1.877-5.585c-0.866-0.614-1.879-0.921-2.891-0.921c-0.333,0-0.665,0.033-0.992,0.1
		l-1.884-9.592C44.743,1.66,42.685,0,40.296,0c-0.016,0-0.033,0-0.049,0c-2.409,0-4.459,1.73-4.876,4.104l-1.201,6.824l-0.644,2.776
		c-0.454-0.132-0.924-0.202-1.395-0.202c-0.911,0-1.826,0.246-2.641,0.753c-1.931,1.201-2.808,3.553-2.134,5.725l2.745,8.855
		c-1.088,1.055-2.213,2.248-3.347,3.56c-3.681-2.233-6.197-6.154-6.944-8.77c-0.417-1.46-1.476-2.651-2.876-3.238
		C16.316,20.129,15.659,20,15.003,20c-0.826,0-1.649,0.205-2.394,0.61c-0.064,0.035-0.167,0.07-0.228,0.107
		C4.7,24.936,0,33.415,0,43.422c0,0.033,0,0.08,0,0.122C0,44.165,0.055,44.753,0.088,45.33z"/>
	<polygon fill="#808080" points="41.078,140 39.078,140 36.078,120 44.078,120 	"/>
	<polygon fill="#999999" points="44.078,120 41.904,120 40.165,140 41.078,140 	"/>
	<polygon fill="#F7931E" points="42.078,22 48.078,19 45.078,29 	"/>
	<polyline fill="#F7931E" points="38.078,22 32.078,19 35.078,29 	"/>
	<path fill="#433FA1" d="M59.078,66c19-5,21-33,6-41c-2,7-12,19-26,12"/>
	<path fill="#433FA1" d="M21.003,66c-19-5-21-33-6-41c2,7,12,19,26,12"/>
	<path fill="#6965B4" d="M53.336,57.674L59.078,66c18.91-4.977,20.975-32.729,6.204-40.878
		C69.919,33.456,74.211,48.394,53.336,57.674z"/>
	<path fill="#6965B4" d="M21.003,66l5.76-8.352c-20.864-9.307-16.5-24.279-11.854-32.593C0.015,33.125,2.044,61.011,21.003,66z"/>
	<polygon fill="#F15A24" points="42.828,23.75 47.078,19.5 42.078,22 	"/>
	<polygon fill="#F15A24" points="33.078,19.5 37.328,23.75 38.078,22 	"/>
	<circle fill="#433FA1" cx="40.078" cy="143" r="4"/>
	<circle fill="#6965B4" cx="41.078" cy="143" r="2"/>
	<path fill="#5A55BD" d="M10.078,91c0-28.515,15.245-50.865,24-59.053l11.999-0.002C54.832,40.133,70.078,62.484,70.078,91
		c0,16.568-13.432,30-30,30C23.509,121,10.078,107.568,10.078,91z"/>
	<path fill="#7B77CA" d="M37.898,120.912c0.721,0.053,1.445,0.088,2.18,0.088c1.132,0,2.249-0.068,3.348-0.19
		c7.26-4.449,27.457-23.372,3.201-88.334c-0.185-0.18-0.371-0.362-0.551-0.53l-11.351,0.002
		C9.972,97.835,30.766,116.639,37.898,120.912z"/>
	<circle fill="#9592D5" cx="40.078" cy="86" r="15"/>
	<circle fill="#1D1C38" cx="40.078" cy="86" r="12"/>
	<polygon fill="#F14216" points="45.078,29 35.078,29 40.078,5 	"/>
	<path fill="#4A4960" d="M38.078,86L34.77,96.75c1.602,0.793,3.399,1.25,5.308,1.25c0.451,0,0.895-0.029,1.333-0.078L45.078,86h-3
		l3.308-10.75C43.784,74.457,41.986,74,40.078,74c-0.451,0-0.895,0.029-1.332,0.078L35.078,86H38.078z"/>
	<polygon fill="#F16A16" points="38.642,11.889 40.078,20.5 41.514,11.889 40.078,5 	"/>
</g>
</svg>
